<mxfile host="app.diagrams.net" agent="Mozilla/5.0 (Windows NT 10.0; Win64; x64; rv:134.0) Gecko/20100101 Firefox/134.0" version="26.0.16">
  <diagram id="C5RBs43oDa-KdzZeNtuy" name="Page-1">
    <mxGraphModel dx="1793" dy="459" grid="1" gridSize="10" guides="1" tooltips="1" connect="1" arrows="1" fold="1" page="1" pageScale="1" pageWidth="827" pageHeight="1169" math="0" shadow="0">
      <root>
        <mxCell id="WIyWlLk6GJQsqaUBKTNV-0" />
        <mxCell id="WIyWlLk6GJQsqaUBKTNV-1" parent="WIyWlLk6GJQsqaUBKTNV-0" />
        <mxCell id="knBb_DPXkGFCcCnxjEH9-7" style="edgeStyle=elbowEdgeStyle;rounded=0;orthogonalLoop=1;jettySize=auto;elbow=vertical;html=1;entryX=0.5;entryY=0;entryDx=0;entryDy=0;exitX=0.5;exitY=1;exitDx=0;exitDy=0;movable=0;resizable=0;rotatable=0;deletable=0;editable=0;locked=1;connectable=0;" edge="1" parent="WIyWlLk6GJQsqaUBKTNV-1" source="WIyWlLk6GJQsqaUBKTNV-3" target="knBb_DPXkGFCcCnxjEH9-1">
          <mxGeometry relative="1" as="geometry">
            <mxPoint x="285" y="70" as="sourcePoint" />
          </mxGeometry>
        </mxCell>
        <mxCell id="WIyWlLk6GJQsqaUBKTNV-3" value="&lt;div&gt;Program Execution&lt;/div&gt;" style="rounded=1;whiteSpace=wrap;html=1;fontSize=12;glass=0;strokeWidth=1;shadow=0;movable=0;resizable=0;rotatable=0;deletable=0;editable=0;locked=1;connectable=0;" parent="WIyWlLk6GJQsqaUBKTNV-1" vertex="1">
          <mxGeometry x="260" y="20" width="330" height="30" as="geometry" />
        </mxCell>
        <mxCell id="knBb_DPXkGFCcCnxjEH9-29" style="edgeStyle=elbowEdgeStyle;rounded=0;orthogonalLoop=1;jettySize=auto;elbow=vertical;html=1;entryX=0.5;entryY=0;entryDx=0;entryDy=0;movable=0;resizable=0;rotatable=0;deletable=0;editable=0;locked=1;connectable=0;" edge="1" parent="WIyWlLk6GJQsqaUBKTNV-1" source="knBb_DPXkGFCcCnxjEH9-0" target="knBb_DPXkGFCcCnxjEH9-12">
          <mxGeometry relative="1" as="geometry" />
        </mxCell>
        <mxCell id="knBb_DPXkGFCcCnxjEH9-0" value="&lt;div&gt;python3 -m jorkieserver&lt;/div&gt;" style="rounded=0;whiteSpace=wrap;html=1;movable=0;resizable=0;rotatable=0;deletable=0;editable=0;locked=1;connectable=0;" vertex="1" parent="WIyWlLk6GJQsqaUBKTNV-1">
          <mxGeometry x="190" y="100" width="150" height="30" as="geometry" />
        </mxCell>
        <mxCell id="knBb_DPXkGFCcCnxjEH9-30" style="edgeStyle=elbowEdgeStyle;rounded=0;orthogonalLoop=1;jettySize=auto;elbow=vertical;html=1;movable=0;resizable=0;rotatable=0;deletable=0;editable=0;locked=1;connectable=0;" edge="1" parent="WIyWlLk6GJQsqaUBKTNV-1" source="knBb_DPXkGFCcCnxjEH9-1" target="knBb_DPXkGFCcCnxjEH9-21">
          <mxGeometry relative="1" as="geometry" />
        </mxCell>
        <mxCell id="knBb_DPXkGFCcCnxjEH9-1" value="(pipx) jorkie-server" style="rounded=0;whiteSpace=wrap;html=1;movable=0;resizable=0;rotatable=0;deletable=0;editable=0;locked=1;connectable=0;" vertex="1" parent="WIyWlLk6GJQsqaUBKTNV-1">
          <mxGeometry x="350" y="100" width="150" height="30" as="geometry" />
        </mxCell>
        <mxCell id="knBb_DPXkGFCcCnxjEH9-8" style="edgeStyle=elbowEdgeStyle;rounded=0;orthogonalLoop=1;jettySize=auto;elbow=vertical;html=1;entryX=0.44;entryY=0.067;entryDx=0;entryDy=0;entryPerimeter=0;movable=0;resizable=0;rotatable=0;deletable=0;editable=0;locked=1;connectable=0;" edge="1" parent="WIyWlLk6GJQsqaUBKTNV-1" target="knBb_DPXkGFCcCnxjEH9-0">
          <mxGeometry relative="1" as="geometry">
            <mxPoint x="425" y="70" as="sourcePoint" />
            <mxPoint x="130" y="100" as="targetPoint" />
            <Array as="points">
              <mxPoint x="340" y="70" />
            </Array>
          </mxGeometry>
        </mxCell>
        <mxCell id="knBb_DPXkGFCcCnxjEH9-9" style="edgeStyle=elbowEdgeStyle;rounded=0;orthogonalLoop=1;jettySize=auto;elbow=vertical;html=1;entryX=0.5;entryY=0;entryDx=0;entryDy=0;exitX=0.5;exitY=1;exitDx=0;exitDy=0;movable=0;resizable=0;rotatable=0;deletable=0;editable=0;locked=1;connectable=0;" edge="1" target="knBb_DPXkGFCcCnxjEH9-10" parent="WIyWlLk6GJQsqaUBKTNV-1" source="WIyWlLk6GJQsqaUBKTNV-3">
          <mxGeometry relative="1" as="geometry">
            <mxPoint x="680" y="75" as="sourcePoint" />
            <Array as="points">
              <mxPoint x="500" y="70" />
            </Array>
          </mxGeometry>
        </mxCell>
        <mxCell id="knBb_DPXkGFCcCnxjEH9-31" style="edgeStyle=elbowEdgeStyle;rounded=0;orthogonalLoop=1;jettySize=auto;elbow=vertical;html=1;entryX=0.5;entryY=0;entryDx=0;entryDy=0;movable=0;resizable=0;rotatable=0;deletable=0;editable=0;locked=1;connectable=0;" edge="1" parent="WIyWlLk6GJQsqaUBKTNV-1" source="knBb_DPXkGFCcCnxjEH9-10" target="knBb_DPXkGFCcCnxjEH9-26">
          <mxGeometry relative="1" as="geometry" />
        </mxCell>
        <mxCell id="knBb_DPXkGFCcCnxjEH9-10" value="poetry run" style="rounded=0;whiteSpace=wrap;html=1;movable=0;resizable=0;rotatable=0;deletable=0;editable=0;locked=1;connectable=0;" vertex="1" parent="WIyWlLk6GJQsqaUBKTNV-1">
          <mxGeometry x="510" y="100" width="150" height="30" as="geometry" />
        </mxCell>
        <mxCell id="knBb_DPXkGFCcCnxjEH9-42" style="edgeStyle=elbowEdgeStyle;rounded=0;orthogonalLoop=1;jettySize=auto;elbow=vertical;html=1;entryX=0.5;entryY=0;entryDx=0;entryDy=0;" edge="1" parent="WIyWlLk6GJQsqaUBKTNV-1" source="knBb_DPXkGFCcCnxjEH9-12" target="knBb_DPXkGFCcCnxjEH9-39">
          <mxGeometry relative="1" as="geometry" />
        </mxCell>
        <mxCell id="knBb_DPXkGFCcCnxjEH9-12" value="Path to Entry Point" style="swimlane;whiteSpace=wrap;html=1;movable=0;resizable=0;rotatable=0;deletable=0;editable=0;locked=1;connectable=0;" vertex="1" parent="WIyWlLk6GJQsqaUBKTNV-1">
          <mxGeometry x="190" y="160" width="150" height="180" as="geometry" />
        </mxCell>
        <mxCell id="knBb_DPXkGFCcCnxjEH9-33" style="edgeStyle=elbowEdgeStyle;rounded=0;orthogonalLoop=1;jettySize=auto;elbow=vertical;html=1;movable=0;resizable=0;rotatable=0;deletable=0;editable=0;locked=1;connectable=0;" edge="1" parent="knBb_DPXkGFCcCnxjEH9-12" source="knBb_DPXkGFCcCnxjEH9-13" target="knBb_DPXkGFCcCnxjEH9-14">
          <mxGeometry relative="1" as="geometry" />
        </mxCell>
        <mxCell id="knBb_DPXkGFCcCnxjEH9-13" value="&lt;div&gt;&lt;font style=&quot;font-size: 8px;&quot;&gt;jorkalserver/__main__.py &lt;br&gt;&lt;/font&gt;&lt;/div&gt;&lt;div&gt;&lt;b&gt;&lt;font style=&quot;font-size: 8px;&quot;&gt;&lt;font&gt;is executed&lt;/font&gt;&lt;/font&gt;&lt;/b&gt;&lt;/div&gt;" style="whiteSpace=wrap;html=1;movable=0;resizable=0;rotatable=0;deletable=0;editable=0;locked=1;connectable=0;" vertex="1" parent="knBb_DPXkGFCcCnxjEH9-12">
          <mxGeometry x="10" y="30" width="130" height="30" as="geometry" />
        </mxCell>
        <mxCell id="knBb_DPXkGFCcCnxjEH9-34" style="edgeStyle=elbowEdgeStyle;rounded=0;orthogonalLoop=1;jettySize=auto;elbow=vertical;html=1;exitX=0.5;exitY=1;exitDx=0;exitDy=0;movable=0;resizable=0;rotatable=0;deletable=0;editable=0;locked=1;connectable=0;" edge="1" parent="knBb_DPXkGFCcCnxjEH9-12" source="knBb_DPXkGFCcCnxjEH9-14" target="knBb_DPXkGFCcCnxjEH9-15">
          <mxGeometry relative="1" as="geometry" />
        </mxCell>
        <mxCell id="knBb_DPXkGFCcCnxjEH9-14" value="&lt;div&gt;&lt;font style=&quot;font-size: 8px;&quot;&gt;if __name__ == &quot;__main__&quot;:&lt;/font&gt;&lt;/div&gt;&lt;div&gt;&lt;font style=&quot;font-size: 8px;&quot;&gt;&lt;b&gt;evaluates to True&lt;/b&gt;&lt;/font&gt;&lt;br&gt;&lt;/div&gt;" style="whiteSpace=wrap;html=1;movable=0;resizable=0;rotatable=0;deletable=0;editable=0;locked=1;connectable=0;" vertex="1" parent="knBb_DPXkGFCcCnxjEH9-12">
          <mxGeometry x="10" y="70" width="130" height="30" as="geometry" />
        </mxCell>
        <mxCell id="knBb_DPXkGFCcCnxjEH9-35" style="edgeStyle=elbowEdgeStyle;rounded=0;orthogonalLoop=1;jettySize=auto;elbow=vertical;html=1;exitX=0.5;exitY=1;exitDx=0;exitDy=0;entryX=0.5;entryY=0;entryDx=0;entryDy=0;movable=0;resizable=0;rotatable=0;deletable=0;editable=0;locked=1;connectable=0;" edge="1" parent="knBb_DPXkGFCcCnxjEH9-12" source="knBb_DPXkGFCcCnxjEH9-15" target="knBb_DPXkGFCcCnxjEH9-20">
          <mxGeometry relative="1" as="geometry" />
        </mxCell>
        <mxCell id="knBb_DPXkGFCcCnxjEH9-15" value="&lt;font style=&quot;font-size: 8px;&quot;&gt;main() function&lt;b&gt; is called&lt;/b&gt;&lt;/font&gt;" style="whiteSpace=wrap;html=1;movable=0;resizable=0;rotatable=0;deletable=0;editable=0;locked=1;connectable=0;" vertex="1" parent="knBb_DPXkGFCcCnxjEH9-12">
          <mxGeometry x="10" y="110" width="130" height="20" as="geometry" />
        </mxCell>
        <mxCell id="knBb_DPXkGFCcCnxjEH9-20" value="&lt;div&gt;&lt;font style=&quot;font-size: 8px;&quot;&gt;jorkieserver.server.run() &lt;br&gt;&lt;/font&gt;&lt;/div&gt;&lt;div&gt;&lt;font style=&quot;font-size: 8px;&quot;&gt;&lt;b&gt;is called&lt;br&gt;&lt;/b&gt;&lt;/font&gt;&lt;/div&gt;" style="whiteSpace=wrap;html=1;movable=0;resizable=0;rotatable=0;deletable=0;editable=0;locked=1;connectable=0;" vertex="1" parent="knBb_DPXkGFCcCnxjEH9-12">
          <mxGeometry x="10" y="140" width="130" height="30" as="geometry" />
        </mxCell>
        <mxCell id="knBb_DPXkGFCcCnxjEH9-32" style="edgeStyle=elbowEdgeStyle;rounded=0;orthogonalLoop=1;jettySize=auto;elbow=vertical;html=1;exitX=0.5;exitY=0;exitDx=0;exitDy=0;movable=0;resizable=0;rotatable=0;deletable=0;editable=0;locked=1;connectable=0;" edge="1" parent="knBb_DPXkGFCcCnxjEH9-12" source="knBb_DPXkGFCcCnxjEH9-14" target="knBb_DPXkGFCcCnxjEH9-14">
          <mxGeometry relative="1" as="geometry" />
        </mxCell>
        <mxCell id="knBb_DPXkGFCcCnxjEH9-43" style="edgeStyle=elbowEdgeStyle;rounded=0;orthogonalLoop=1;jettySize=auto;elbow=vertical;html=1;exitX=0.5;exitY=1;exitDx=0;exitDy=0;entryX=0.5;entryY=0;entryDx=0;entryDy=0;" edge="1" parent="WIyWlLk6GJQsqaUBKTNV-1" source="knBb_DPXkGFCcCnxjEH9-21" target="knBb_DPXkGFCcCnxjEH9-39">
          <mxGeometry relative="1" as="geometry" />
        </mxCell>
        <mxCell id="knBb_DPXkGFCcCnxjEH9-21" value="Path to Entry Point" style="swimlane;whiteSpace=wrap;html=1;movable=0;resizable=0;rotatable=0;deletable=0;editable=0;locked=1;connectable=0;" vertex="1" parent="WIyWlLk6GJQsqaUBKTNV-1">
          <mxGeometry x="350" y="160" width="150" height="180" as="geometry" />
        </mxCell>
        <mxCell id="knBb_DPXkGFCcCnxjEH9-36" style="edgeStyle=elbowEdgeStyle;rounded=0;orthogonalLoop=1;jettySize=auto;elbow=vertical;html=1;entryX=0.5;entryY=0;entryDx=0;entryDy=0;movable=0;resizable=0;rotatable=0;deletable=0;editable=0;locked=1;connectable=0;" edge="1" parent="knBb_DPXkGFCcCnxjEH9-21" source="knBb_DPXkGFCcCnxjEH9-22" target="knBb_DPXkGFCcCnxjEH9-25">
          <mxGeometry relative="1" as="geometry" />
        </mxCell>
        <mxCell id="knBb_DPXkGFCcCnxjEH9-22" value="&lt;div&gt;&lt;font style=&quot;font-size: 6px;&quot;&gt;&lt;font style=&quot;font-size: 8px;&quot;&gt;jorkieserver.__main__.py:main() &lt;br&gt;&lt;/font&gt;&lt;/font&gt;&lt;/div&gt;&lt;div&gt;&lt;b&gt;&lt;font style=&quot;font-size: 6px;&quot;&gt;&lt;font style=&quot;font-size: 8px;&quot;&gt;is executed&lt;/font&gt;&lt;/font&gt;&lt;/b&gt;&lt;/div&gt;" style="whiteSpace=wrap;html=1;movable=0;resizable=0;rotatable=0;deletable=0;editable=0;locked=1;connectable=0;" vertex="1" parent="knBb_DPXkGFCcCnxjEH9-21">
          <mxGeometry x="10" y="30" width="130" height="30" as="geometry" />
        </mxCell>
        <mxCell id="knBb_DPXkGFCcCnxjEH9-25" value="&lt;div&gt;&lt;font style=&quot;font-size: 8px;&quot;&gt;jorkieserver.server.run() &lt;br&gt;&lt;/font&gt;&lt;/div&gt;&lt;div&gt;&lt;font style=&quot;font-size: 8px;&quot;&gt;&lt;b&gt;is called&lt;br&gt;&lt;/b&gt;&lt;/font&gt;&lt;/div&gt;" style="whiteSpace=wrap;html=1;movable=0;resizable=0;rotatable=0;deletable=0;editable=0;locked=1;connectable=0;" vertex="1" parent="knBb_DPXkGFCcCnxjEH9-21">
          <mxGeometry x="10" y="140" width="130" height="30" as="geometry" />
        </mxCell>
        <mxCell id="knBb_DPXkGFCcCnxjEH9-44" style="edgeStyle=elbowEdgeStyle;rounded=0;orthogonalLoop=1;jettySize=auto;elbow=vertical;html=1;entryX=0.5;entryY=0;entryDx=0;entryDy=0;" edge="1" parent="WIyWlLk6GJQsqaUBKTNV-1" source="knBb_DPXkGFCcCnxjEH9-26" target="knBb_DPXkGFCcCnxjEH9-39">
          <mxGeometry relative="1" as="geometry" />
        </mxCell>
        <mxCell id="knBb_DPXkGFCcCnxjEH9-26" value="Path to Entry Point" style="swimlane;whiteSpace=wrap;html=1;movable=0;resizable=0;rotatable=0;deletable=0;editable=0;locked=1;connectable=0;" vertex="1" parent="WIyWlLk6GJQsqaUBKTNV-1">
          <mxGeometry x="510" y="160" width="150" height="180" as="geometry" />
        </mxCell>
        <mxCell id="knBb_DPXkGFCcCnxjEH9-37" style="edgeStyle=elbowEdgeStyle;rounded=0;orthogonalLoop=1;jettySize=auto;elbow=vertical;html=1;entryX=0.5;entryY=0;entryDx=0;entryDy=0;movable=0;resizable=0;rotatable=0;deletable=0;editable=0;locked=1;connectable=0;" edge="1" parent="knBb_DPXkGFCcCnxjEH9-26" source="knBb_DPXkGFCcCnxjEH9-27" target="knBb_DPXkGFCcCnxjEH9-28">
          <mxGeometry relative="1" as="geometry" />
        </mxCell>
        <mxCell id="knBb_DPXkGFCcCnxjEH9-27" value="&lt;div&gt;&lt;font style=&quot;font-size: 6px;&quot;&gt;&lt;font style=&quot;font-size: 8px;&quot;&gt;jorkieserver.__main__.py:main() &lt;br&gt;&lt;/font&gt;&lt;/font&gt;&lt;/div&gt;&lt;div&gt;&lt;b&gt;&lt;font style=&quot;font-size: 6px;&quot;&gt;&lt;font style=&quot;font-size: 8px;&quot;&gt;is executed&lt;/font&gt;&lt;/font&gt;&lt;/b&gt;&lt;/div&gt;" style="whiteSpace=wrap;html=1;movable=0;resizable=0;rotatable=0;deletable=0;editable=0;locked=1;connectable=0;" vertex="1" parent="knBb_DPXkGFCcCnxjEH9-26">
          <mxGeometry x="10" y="30" width="130" height="30" as="geometry" />
        </mxCell>
        <mxCell id="knBb_DPXkGFCcCnxjEH9-28" value="&lt;div&gt;&lt;font style=&quot;font-size: 8px;&quot;&gt;jorkieserver.server.run() &lt;br&gt;&lt;/font&gt;&lt;/div&gt;&lt;div&gt;&lt;font style=&quot;font-size: 8px;&quot;&gt;&lt;b&gt;is called&lt;br&gt;&lt;/b&gt;&lt;/font&gt;&lt;/div&gt;" style="whiteSpace=wrap;html=1;movable=0;resizable=0;rotatable=0;deletable=0;editable=0;locked=1;connectable=0;" vertex="1" parent="knBb_DPXkGFCcCnxjEH9-26">
          <mxGeometry x="10" y="140" width="130" height="30" as="geometry" />
        </mxCell>
        <mxCell id="knBb_DPXkGFCcCnxjEH9-39" value="(entry point) server.py:run()" style="swimlane;whiteSpace=wrap;html=1;" vertex="1" parent="WIyWlLk6GJQsqaUBKTNV-1">
          <mxGeometry x="340" y="370" width="170" height="60" as="geometry" />
        </mxCell>
        <mxCell id="knBb_DPXkGFCcCnxjEH9-40" value="&lt;font style=&quot;font-size: 8px;&quot;&gt;Server = Server()&lt;/font&gt;" style="rounded=0;whiteSpace=wrap;html=1;" vertex="1" parent="knBb_DPXkGFCcCnxjEH9-39">
          <mxGeometry x="9" y="30" width="150" height="20" as="geometry" />
        </mxCell>
        <mxCell id="knBb_DPXkGFCcCnxjEH9-45" value="&lt;div&gt;Server (Instance)&lt;/div&gt;" style="swimlane;whiteSpace=wrap;html=1;" vertex="1" parent="WIyWlLk6GJQsqaUBKTNV-1">
          <mxGeometry x="-20" y="510" width="770" height="855" as="geometry" />
        </mxCell>
        <mxCell id="knBb_DPXkGFCcCnxjEH9-49" value="&lt;div&gt;[ function: __init__ ]&lt;/div&gt;" style="swimlane;whiteSpace=wrap;html=1;" vertex="1" parent="knBb_DPXkGFCcCnxjEH9-45">
          <mxGeometry x="350" y="105" width="200" height="195" as="geometry" />
        </mxCell>
        <mxCell id="knBb_DPXkGFCcCnxjEH9-50" value="&lt;div&gt;&lt;font style=&quot;font-size: 10px;&quot;&gt;command-line args are parsed&lt;/font&gt;&lt;/div&gt;&lt;div&gt;&lt;font style=&quot;font-size: 10px;&quot;&gt;CommandOpts()&lt;br&gt;&lt;/font&gt;&lt;/div&gt;&lt;font style=&quot;font-size: 10px;&quot;&gt;&lt;/font&gt;" style="whiteSpace=wrap;html=1;fillColor=light-dark(#99FF33,var(--ge-dark-color, #121212));" vertex="1" parent="knBb_DPXkGFCcCnxjEH9-49">
          <mxGeometry x="10" y="35" width="180" height="30" as="geometry" />
        </mxCell>
        <mxCell id="knBb_DPXkGFCcCnxjEH9-51" value="&lt;div&gt;&lt;font style=&quot;font-size: 10px;&quot;&gt;configuration is loaded&amp;nbsp;&lt;/font&gt;&lt;/div&gt;&lt;div&gt;&lt;font style=&quot;font-size: 10px;&quot;&gt;Log()&lt;/font&gt;&lt;/div&gt;" style="whiteSpace=wrap;html=1;" vertex="1" parent="knBb_DPXkGFCcCnxjEH9-49">
          <mxGeometry x="10" y="75" width="180" height="30" as="geometry" />
        </mxCell>
        <mxCell id="knBb_DPXkGFCcCnxjEH9-52" value="&lt;div&gt;&lt;font style=&quot;font-size: 10px;&quot;&gt;logging is loaded&lt;/font&gt;&lt;/div&gt;&lt;div&gt;&lt;font style=&quot;font-size: 10px;&quot;&gt;&amp;nbsp;Configuration()&lt;/font&gt;&lt;/div&gt;" style="whiteSpace=wrap;html=1;" vertex="1" parent="knBb_DPXkGFCcCnxjEH9-49">
          <mxGeometry x="10" y="115" width="180" height="30" as="geometry" />
        </mxCell>
        <mxCell id="knBb_DPXkGFCcCnxjEH9-53" value="&lt;div&gt;&lt;font style=&quot;font-size: 10px;&quot;&gt;sub-components are loaded&amp;nbsp;&lt;/font&gt;&lt;/div&gt;&lt;div&gt;&lt;font style=&quot;font-size: 10px;&quot;&gt;Components()&lt;/font&gt;&lt;/div&gt;" style="whiteSpace=wrap;html=1;" vertex="1" parent="knBb_DPXkGFCcCnxjEH9-49">
          <mxGeometry x="10" y="155" width="180" height="30" as="geometry" />
        </mxCell>
        <mxCell id="knBb_DPXkGFCcCnxjEH9-54" value="CommandOpts() creation" style="swimlane;whiteSpace=wrap;html=1;fillColor=light-dark(#99FF33,#000000);" vertex="1" parent="knBb_DPXkGFCcCnxjEH9-45">
          <mxGeometry x="50" y="50" width="200" height="180" as="geometry" />
        </mxCell>
        <mxCell id="knBb_DPXkGFCcCnxjEH9-64" style="edgeStyle=elbowEdgeStyle;rounded=0;orthogonalLoop=1;jettySize=auto;elbow=vertical;html=1;exitX=0.5;exitY=1;exitDx=0;exitDy=0;fillColor=light-dark(#99FF33,#000000);" edge="1" parent="knBb_DPXkGFCcCnxjEH9-54" source="knBb_DPXkGFCcCnxjEH9-55" target="knBb_DPXkGFCcCnxjEH9-61">
          <mxGeometry relative="1" as="geometry" />
        </mxCell>
        <mxCell id="knBb_DPXkGFCcCnxjEH9-55" value="&lt;div&gt;&lt;font style=&quot;font-size: 10px;&quot;&gt;self.__parse_args() is called&lt;br&gt;&lt;/font&gt;&lt;/div&gt;" style="rounded=0;whiteSpace=wrap;html=1;fillColor=light-dark(#99FF33,#000000);" vertex="1" parent="knBb_DPXkGFCcCnxjEH9-54">
          <mxGeometry x="10" y="35" width="180" height="25" as="geometry" />
        </mxCell>
        <mxCell id="knBb_DPXkGFCcCnxjEH9-65" style="edgeStyle=elbowEdgeStyle;rounded=0;orthogonalLoop=1;jettySize=auto;elbow=vertical;html=1;exitX=0.5;exitY=1;exitDx=0;exitDy=0;entryX=0.5;entryY=0;entryDx=0;entryDy=0;fillColor=light-dark(#99FF33,#000000);" edge="1" parent="knBb_DPXkGFCcCnxjEH9-54" source="knBb_DPXkGFCcCnxjEH9-61" target="knBb_DPXkGFCcCnxjEH9-62">
          <mxGeometry relative="1" as="geometry" />
        </mxCell>
        <mxCell id="knBb_DPXkGFCcCnxjEH9-61" value="&lt;div&gt;&lt;font style=&quot;font-size: 10px;&quot;&gt;Command-line arguments are parsed&lt;font&gt;&lt;br&gt;&lt;/font&gt;&lt;/font&gt;&lt;/div&gt;" style="rounded=0;whiteSpace=wrap;html=1;fillColor=light-dark(#99FF33,#000000);" vertex="1" parent="knBb_DPXkGFCcCnxjEH9-54">
          <mxGeometry x="10" y="70" width="180" height="20" as="geometry" />
        </mxCell>
        <mxCell id="knBb_DPXkGFCcCnxjEH9-66" style="edgeStyle=elbowEdgeStyle;rounded=0;orthogonalLoop=1;jettySize=auto;elbow=vertical;html=1;exitX=0.5;exitY=1;exitDx=0;exitDy=0;entryX=0.5;entryY=0;entryDx=0;entryDy=0;fillColor=light-dark(#99FF33,#000000);" edge="1" parent="knBb_DPXkGFCcCnxjEH9-54" source="knBb_DPXkGFCcCnxjEH9-62" target="knBb_DPXkGFCcCnxjEH9-63">
          <mxGeometry relative="1" as="geometry" />
        </mxCell>
        <mxCell id="knBb_DPXkGFCcCnxjEH9-62" value="&lt;font style=&quot;font-size: 10px;&quot;&gt;CommandOptions Instance is created containing parsed arguments&lt;/font&gt;" style="rounded=0;whiteSpace=wrap;html=1;fillColor=light-dark(#99FF33,#000000);" vertex="1" parent="knBb_DPXkGFCcCnxjEH9-54">
          <mxGeometry x="10" y="100" width="180" height="30" as="geometry" />
        </mxCell>
        <mxCell id="knBb_DPXkGFCcCnxjEH9-63" value="&lt;font style=&quot;font-size: 10px;&quot;&gt;CommandObjects instance is returned&lt;/font&gt;" style="rounded=0;whiteSpace=wrap;html=1;fillColor=light-dark(#99FF33,#000000);" vertex="1" parent="knBb_DPXkGFCcCnxjEH9-54">
          <mxGeometry x="10" y="140" width="180" height="30" as="geometry" />
        </mxCell>
        <mxCell id="knBb_DPXkGFCcCnxjEH9-56" style="edgeStyle=elbowEdgeStyle;rounded=0;orthogonalLoop=1;jettySize=auto;html=1;fillColor=#3399FF;exitX=0;exitY=0.25;exitDx=0;exitDy=0;entryX=1;entryY=0.5;entryDx=0;entryDy=0;strokeColor=light-dark(#99FF33,#000000);" edge="1" parent="knBb_DPXkGFCcCnxjEH9-45" source="knBb_DPXkGFCcCnxjEH9-50" target="knBb_DPXkGFCcCnxjEH9-55">
          <mxGeometry relative="1" as="geometry">
            <mxPoint x="290" y="90" as="sourcePoint" />
            <mxPoint x="90" y="130" as="targetPoint" />
            <Array as="points">
              <mxPoint x="330" y="120" />
              <mxPoint x="180" y="60" />
              <mxPoint x="170" y="90" />
            </Array>
          </mxGeometry>
        </mxCell>
        <mxCell id="knBb_DPXkGFCcCnxjEH9-67" style="edgeStyle=elbowEdgeStyle;rounded=0;orthogonalLoop=1;jettySize=auto;html=1;entryX=0;entryY=0.75;entryDx=0;entryDy=0;strokeColor=light-dark(#99FF33,#000000);" edge="1" parent="knBb_DPXkGFCcCnxjEH9-45" source="knBb_DPXkGFCcCnxjEH9-63" target="knBb_DPXkGFCcCnxjEH9-50">
          <mxGeometry relative="1" as="geometry">
            <mxPoint x="320" y="190" as="targetPoint" />
            <Array as="points">
              <mxPoint x="330" y="210" />
            </Array>
          </mxGeometry>
        </mxCell>
        <mxCell id="knBb_DPXkGFCcCnxjEH9-46" style="edgeStyle=elbowEdgeStyle;rounded=0;orthogonalLoop=1;jettySize=auto;elbow=vertical;html=1;entryX=0.468;entryY=0.114;entryDx=0;entryDy=0;entryPerimeter=0;" edge="1" parent="WIyWlLk6GJQsqaUBKTNV-1" source="knBb_DPXkGFCcCnxjEH9-39" target="knBb_DPXkGFCcCnxjEH9-50">
          <mxGeometry relative="1" as="geometry" />
        </mxCell>
      </root>
    </mxGraphModel>
  </diagram>
</mxfile>
